<svg viewBox="0 0 278 48" fill="none" xmlns="http://www.w3.org/2000/svg">
<path d="M49.6552 18.3724H30.7034L24.8276 0L18.9517 18.3724H0L15.3103 29.7103L9.51724 48L24.8276 36.6621L40.1379 48L34.2621 29.6276L49.6552 18.3724Z" fill="#FFCE31"/>
<path d="M106.655 18.3724H87.7034L81.8276 0L75.9517 18.3724H57L72.3103 29.7103L66.5172 48L81.8276 36.6621L97.1379 48L91.2621 29.6276L106.655 18.3724Z" fill="#FFCE31"/>
<path d="M163.655 18.3724H144.703L138.828 0L132.952 18.3724H114L129.31 29.7103L123.517 48L138.828 36.6621L154.138 48L148.262 29.6276L163.655 18.3724Z" fill="#FFCE31"/>
<path d="M220.655 18.3724H201.703L195.828 0L189.952 18.3724H171L186.31 29.7103L180.517 48L195.828 36.6621L211.138 48L205.262 29.6276L220.655 18.3724Z" fill="#FFCE31"/>
<path d="M277.655 18.3724H258.703L252.828 0L246.952 18.3724H228L243.31 29.7103L237.517 48L252.828 36.6621L268.138 48L262.262 29.6276L277.655 18.3724Z" fill="#FFCE31"/>
</svg>
