<svg viewBox="0 0 838 275" fill="none" xmlns="http://www.w3.org/2000/svg">
<path d="M834.543 64.3073C837.088 78.7405 829.036 95.0582 810.533 112.434C792.14 129.708 764.037 147.415 728.191 164.491C656.538 198.625 554.583 229.938 439.329 250.261C324.076 270.583 217.56 276.028 138.554 268.46C99.0288 264.674 66.5647 257.646 43.3723 247.705C20.0432 237.705 6.89523 225.126 4.35027 210.693C1.80531 196.26 9.85792 179.942 28.36 162.566C46.7537 145.293 74.8564 127.585 110.703 110.509C182.356 76.3754 284.31 45.0619 399.564 24.7396C514.818 4.41722 621.333 -1.02817 700.34 6.54015C739.865 10.3264 772.329 17.3541 795.521 27.2951C818.85 37.2947 831.998 49.8741 834.543 64.3073Z" stroke="url(#paint0_linear_2_19)" stroke-width="6"/>
<defs>
<linearGradient id="paint0_linear_2_19" x1="399.043" y1="21.7851" x2="439.85" y2="253.215" gradientUnits="userSpaceOnUse">
<stop stop-color="#FF965C"/>
<stop offset="0.472916" stop-color="#969F86"/>
<stop offset="1" stop-color="#0096EA"/>
</linearGradient>
</defs>
</svg>
