<svg width="877" height="379" viewBox="0 0 877 379" fill="none" xmlns="http://www.w3.org/2000/svg">
<path d="M853.543 116.307C856.088 130.741 848.036 147.058 829.533 164.434C811.14 181.708 783.037 199.415 747.191 216.491C675.538 250.625 573.583 281.938 458.329 302.261C343.076 322.583 236.56 328.028 157.554 320.46C118.029 316.674 85.5647 309.646 62.3723 299.705C39.0432 289.705 25.8952 277.126 23.3503 262.693C20.8053 248.26 28.8579 231.942 47.36 214.566C65.7537 197.293 93.8564 179.585 129.703 162.509C201.356 128.375 303.31 97.0619 418.564 76.7396C533.818 56.4172 640.333 50.9718 719.34 58.5401C758.865 62.3264 791.329 69.3541 814.521 79.2951C837.85 89.2947 850.998 101.874 853.543 116.307Z" stroke="url(#paint0_linear_23_292)" stroke-width="6"/>
<path d="M598 27L603.729 47.0762L623.981 42L609.459 57L623.981 72L603.729 66.9238L598 87L592.271 66.9238L572.019 72L586.541 57L572.019 42L592.271 47.0762L598 27Z" fill="#FF965C"/>
<defs>
<linearGradient id="paint0_linear_23_292" x1="418.043" y1="73.7851" x2="458.85" y2="305.215" gradientUnits="userSpaceOnUse">
<stop stop-color="#FF965C"/>
<stop offset="0.472916" stop-color="#969F86"/>
<stop offset="1" stop-color="#0096EA"/>
</linearGradient>
</defs>
</svg>
