<svg width="53" height="61" viewBox="0 0 53 61" fill="none" xmlns="http://www.w3.org/2000/svg">
<path d="M51.5463 6.57194C49.4321 1.23609 43.2908 -1.3815 37.8543 0.732706C32.4178 2.84691 29.8002 8.88749 31.9144 14.2233C34.1293 19.5592 40.2705 22.1768 45.7071 20.0626C51.1436 17.9484 53.7612 11.9078 51.5463 6.57194Z" fill="#64892F"/>
<path d="M50.9422 6.87396C48.9287 1.84014 43.0895 -0.576097 38.0557 1.43743C32.9212 3.45096 30.5049 9.08883 32.5185 14.1227C34.532 19.1565 40.3712 21.5727 45.405 19.5592C50.5395 17.5457 53.0564 11.8071 50.9422 6.87396Z" fill="#FDFFB8"/>
<path d="M38.9617 1.53814C39.2638 1.23611 44.7003 1.13543 44.801 1.73949C44.9017 1.94085 45.103 2.04152 45.103 2.24287C45.0023 2.94761 42.0827 9.29022 42.0827 9.29022C41.982 9.29022 41.68 8.88752 41.4787 9.18955C41.2773 9.3909 38.559 2.34355 38.6597 2.24287C38.8611 2.04152 38.7604 1.73949 38.9617 1.53814ZM44.5996 19.3579C44.2976 19.6599 38.8611 19.7606 38.7604 19.1565C38.6597 18.9552 38.4584 18.8545 38.4584 18.6531C38.559 17.9484 41.4787 11.6058 41.4787 11.6058C41.5793 11.6058 41.8814 12.0085 42.0827 11.7065C42.2841 11.5051 45.0023 18.5525 44.9016 18.6531C44.7003 18.8545 44.801 19.1565 44.5996 19.3579ZM50.8416 7.6794C51.2443 7.98143 51.2443 13.2166 50.6402 13.418C50.4389 13.5186 50.3382 13.72 50.1368 13.72C49.3314 13.6193 42.8881 10.8004 42.8881 10.8004C42.8881 10.6997 43.2908 10.3977 42.9888 10.1963C42.7874 9.99496 50.0361 7.37737 50.1368 7.47805C50.3382 7.57872 50.6402 7.47805 50.8416 7.6794ZM32.7198 13.1159C32.3171 12.8139 32.3171 7.57872 32.9212 7.37737C33.1225 7.27669 33.2232 7.07534 33.4245 7.07534C34.23 7.17602 40.6732 9.99496 40.6732 9.99496C40.6732 10.0956 40.2705 10.3977 40.5726 10.599C40.7739 10.8004 33.5252 13.418 33.4245 13.3173C33.2232 13.3173 32.9212 13.3173 32.7198 13.1159ZM33.5252 6.26993C33.4245 5.86722 37.2502 2.04152 37.7536 2.34355C37.955 2.44423 38.257 2.34355 38.3577 2.44423C38.7604 3.04829 41.378 9.49158 41.378 9.49158C41.2773 9.49158 40.8746 9.49158 40.8746 9.7936C40.9753 10.0956 33.8272 6.97467 33.8272 6.87399C33.8272 6.67264 33.5252 6.47128 33.5252 6.26993ZM50.2375 14.7267C50.3382 15.1295 46.5125 18.8545 46.0091 18.6531C45.8077 18.5525 45.5057 18.6531 45.405 18.5525C45.0023 17.9484 42.3847 11.5051 42.3847 11.5051C42.4854 11.5051 42.8881 11.5051 42.8881 11.1024C42.7874 10.8004 49.9355 13.9213 49.9355 14.022C49.9355 14.324 50.1368 14.5254 50.2375 14.7267ZM46.1098 2.24287C46.5125 2.1422 50.4389 5.86722 50.1368 6.37061C50.0361 6.57196 50.1368 6.77331 49.9355 6.97466C49.3314 7.37737 42.6868 9.89428 42.6868 9.89428C42.6868 9.7936 42.6868 9.3909 42.2841 9.3909C41.982 9.49158 45.2037 2.5449 45.3044 2.5449C45.7071 2.5449 45.9084 2.34355 46.1098 2.24287ZM37.4516 18.5525C37.0489 18.6531 33.1225 14.9281 33.4245 14.4247C33.5252 14.2234 33.4245 14.022 33.6259 13.8207C34.23 13.418 40.8746 10.901 40.8746 10.901C40.8746 11.0017 40.8746 11.4044 41.2773 11.4044C41.5793 11.3038 38.3577 18.2504 38.257 18.2504C37.8543 18.2504 37.653 18.4518 37.4516 18.5525Z" fill="#CED74D"/>
<path d="M18.4238 7.0753C15.9069 4.55839 11.6785 4.55839 9.16155 7.0753L0 16.0355L1.40947 17.445L10.571 8.48477C12.3832 6.6726 15.3028 6.6726 17.115 8.48477L37.2503 28.318L38.6597 26.9086L18.4238 7.0753Z" fill="#C10259"/>
<path opacity="0.8" d="M41.982 10.4983H16.7123C21.444 21.472 7.148 41.3053 23.7596 44.6276C28.8941 46.4398 28.5921 50.5675 26.8806 54.5946C25.0684 58.823 20.9407 59.5277 20.84 59.6284C20.7393 59.7291 20.6386 59.9304 20.6386 60.1318C20.6386 60.3331 20.7393 60.5345 20.9407 60.5345H37.6529C37.7536 60.5345 37.8543 60.3331 37.955 60.1318C37.955 59.9304 37.8543 59.6284 37.7536 59.6284C37.7536 59.6284 33.5252 58.823 31.713 54.5946C30.0015 50.6682 29.8002 46.4398 34.834 44.6276C51.5463 41.2046 37.2502 21.3714 41.982 10.4983ZM29.3975 43.2182C8.35611 43.2182 23.1555 22.0761 18.8265 11.3037H39.9685C35.6394 22.0761 50.4388 43.2182 29.3975 43.2182Z" fill="#A1B8C7"/>
<g opacity="0.8">
<path d="M19.3299 30.5329C18.7258 36.6742 19.8332 41.6073 29.2968 41.6073C37.1496 41.6073 39.2638 38.1843 39.3645 33.4525C33.1225 34.6606 27.4846 29.2241 19.3299 30.5329Z" fill="#F65500"/>
<path d="M39.4652 33.5532C39.5658 30.0295 38.5591 25.8011 38.0557 21.8747C32.6192 22.0761 27.5854 18.1497 20.84 18.5524C20.7394 22.3781 19.7326 26.7072 19.3299 30.5329C27.4847 29.2241 33.1226 34.6606 39.4652 33.5532Z" fill="#FCB334"/>
</g>
</svg>
