<svg viewBox="0 0 252 61" fill="none" xmlns="http://www.w3.org/2000/svg">
<path d="M56.8 45.46L58.96 44.92V21.88L56.8 21.34V20.8H67.06V21.34L64.9 21.88V45.1H72.64C72.64 43.588 73.024 42.184 73.792 40.888C74.128 40.336 74.524 39.88 74.98 39.52H76.06V46H56.8V45.46ZM78.7727 45.46L80.9327 44.92V21.88L78.7727 21.34V20.8H98.0327V27.28H96.9527C96.4967 26.92 96.1007 26.464 95.7647 25.912C94.9967 24.616 94.6127 23.212 94.6127 21.7H86.8727V33.04H91.0127C91.1807 32.128 91.4927 31.276 91.9487 30.484C92.1407 30.124 92.3687 29.776 92.6327 29.44H93.7127V37.54H92.6327C92.3687 37.204 92.1407 36.856 91.9487 36.496C91.4927 35.704 91.1807 34.852 91.0127 33.94H86.8727V45.1H95.3327C95.3327 43.588 95.7167 42.184 96.4847 40.888C96.8207 40.336 97.2167 39.88 97.6727 39.52H98.7527V46H78.7727V45.46ZM111.346 21.88L109.546 21.34V20.8H113.866C115.114 20.8 116.134 21.088 116.926 21.664C117.718 22.216 118.318 22.948 118.726 23.86L125.098 38.368L130.966 22.42L128.266 21.34V20.8H134.926V21.34L132.046 22.42L123.226 46.36H122.146L111.346 21.88ZM146.437 46.54C144.085 46.54 142.021 46.036 140.245 45.028C138.493 43.996 137.137 42.496 136.177 40.528C135.217 38.56 134.737 36.184 134.737 33.4C134.737 30.616 135.217 28.24 136.177 26.272C137.137 24.304 138.493 22.816 140.245 21.808C142.021 20.776 144.085 20.26 146.437 20.26C148.789 20.26 150.841 20.776 152.593 21.808C154.369 22.816 155.737 24.304 156.697 26.272C157.657 28.24 158.137 30.616 158.137 33.4C158.137 36.184 157.657 38.56 156.697 40.528C155.737 42.496 154.369 43.996 152.593 45.028C150.841 46.036 148.789 46.54 146.437 46.54ZM146.437 45.82C147.373 45.82 148.237 45.424 149.029 44.632C149.845 43.84 150.517 42.52 151.045 40.672C151.573 38.824 151.837 36.4 151.837 33.4C151.837 30.4 151.573 27.976 151.045 26.128C150.517 24.28 149.845 22.96 149.029 22.168C148.237 21.376 147.373 20.98 146.437 20.98C145.501 20.98 144.625 21.376 143.809 22.168C143.017 22.96 142.357 24.28 141.829 26.128C141.301 27.976 141.037 30.4 141.037 33.4C141.037 36.4 141.301 38.824 141.829 40.672C142.357 42.52 143.017 43.84 143.809 44.632C144.625 45.424 145.501 45.82 146.437 45.82ZM166.083 45.46L168.243 44.92V36.64L160.863 21.88L159.062 21.34V20.8H163.562C164.811 20.8 165.807 21.064 166.551 21.592C167.319 22.12 167.943 22.876 168.423 23.86L173.751 34.48L179.223 22.42L176.523 21.34V20.8H183.363V21.34L180.483 22.42L174.183 36.28V44.92L176.343 45.46V46H166.083V45.46ZM179.05 45.46L181.93 44.38L191.83 20.44H192.91L203.17 44.92L204.97 45.46V46H200.65C199.402 46 198.382 45.724 197.59 45.172C196.798 44.596 196.21 43.852 195.826 42.94L193.99 38.62H185.386L183.01 44.38L185.71 45.46V46H179.05V45.46ZM185.746 37.72H193.63L189.67 28.252L185.746 37.72ZM215.235 46.54C213.411 46.54 211.731 46.024 210.195 44.992C208.659 43.96 207.435 42.46 206.523 40.492C205.611 38.5 205.155 36.136 205.155 33.4C205.155 30.64 205.623 28.276 206.559 26.308C207.519 24.316 208.851 22.816 210.555 21.808C212.283 20.776 214.275 20.26 216.531 20.26C217.899 20.26 219.279 20.656 220.671 21.448C221.199 21.736 221.727 22.12 222.255 22.6C222.663 21.976 223.083 21.484 223.515 21.124C223.947 20.812 224.187 20.644 224.235 20.62H225.135V27.46H223.695C223.383 26.308 222.915 25.264 222.291 24.328C221.715 23.416 220.995 22.66 220.131 22.06C219.291 21.46 218.319 21.16 217.215 21.16C215.559 21.16 214.179 22.12 213.075 24.04C211.995 25.96 211.455 29.08 211.455 33.4C211.455 37.72 211.935 40.78 212.895 42.58C213.879 44.38 215.139 45.28 216.675 45.28C217.563 45.28 218.367 44.8 219.087 43.84C219.351 43.48 219.627 43 219.915 42.4V34.12L217.755 33.58V33.04H228.015V33.58L225.855 34.12V46.18H225.315C223.563 46.18 222.231 45.7 221.319 44.74C220.911 44.308 220.623 43.828 220.455 43.3C220.119 43.9 219.723 44.44 219.267 44.92C218.187 46 216.843 46.54 215.235 46.54ZM230.542 45.46L232.702 44.92V21.88L230.542 21.34V20.8H249.802V27.28H248.722C248.266 26.92 247.87 26.464 247.534 25.912C246.766 24.616 246.382 23.212 246.382 21.7H238.642V33.04H242.782C242.95 32.128 243.262 31.276 243.718 30.484C243.91 30.124 244.138 29.776 244.402 29.44H245.482V37.54H244.402C244.138 37.204 243.91 36.856 243.718 36.496C243.262 35.704 242.95 34.852 242.782 33.94H238.642V45.1H247.102C247.102 43.588 247.486 42.184 248.254 40.888C248.59 40.336 248.986 39.88 249.442 39.52H250.522V46H230.542V45.46Z" fill="white"/>
<path d="M51.5463 6.57194C49.4321 1.23609 43.2908 -1.3815 37.8543 0.732706C32.4178 2.84691 29.8002 8.88749 31.9144 14.2233C34.1293 19.5592 40.2705 22.1768 45.7071 20.0626C51.1436 17.9484 53.7612 11.9078 51.5463 6.57194Z" fill="#64892F"/>
<path d="M50.9422 6.87396C48.9287 1.84014 43.0895 -0.576097 38.0557 1.43743C32.9212 3.45096 30.5049 9.08883 32.5185 14.1227C34.532 19.1565 40.3712 21.5727 45.405 19.5592C50.5395 17.5457 53.0564 11.8071 50.9422 6.87396Z" fill="#FDFFB8"/>
<path d="M38.9617 1.53814C39.2638 1.23611 44.7003 1.13543 44.801 1.73949C44.9017 1.94085 45.103 2.04152 45.103 2.24287C45.0023 2.94761 42.0827 9.29022 42.0827 9.29022C41.982 9.29022 41.68 8.88752 41.4787 9.18955C41.2773 9.3909 38.559 2.34355 38.6597 2.24287C38.8611 2.04152 38.7604 1.73949 38.9617 1.53814ZM44.5996 19.3579C44.2976 19.6599 38.8611 19.7606 38.7604 19.1565C38.6597 18.9552 38.4584 18.8545 38.4584 18.6531C38.559 17.9484 41.4787 11.6058 41.4787 11.6058C41.5793 11.6058 41.8814 12.0085 42.0827 11.7065C42.2841 11.5051 45.0023 18.5524 44.9016 18.6531C44.7003 18.8545 44.801 19.1565 44.5996 19.3579ZM50.8416 7.6794C51.2443 7.98143 51.2443 13.2166 50.6402 13.418C50.4389 13.5186 50.3382 13.72 50.1368 13.72C49.3314 13.6193 42.8881 10.8004 42.8881 10.8004C42.8881 10.6997 43.2908 10.3977 42.9888 10.1963C42.7874 9.99496 50.0361 7.37737 50.1368 7.47805C50.3382 7.57872 50.6402 7.47805 50.8416 7.6794ZM32.7198 13.1159C32.3171 12.8139 32.3171 7.57872 32.9212 7.37737C33.1225 7.27669 33.2232 7.07534 33.4245 7.07534C34.23 7.17602 40.6732 9.99496 40.6732 9.99496C40.6732 10.0956 40.2705 10.3977 40.5726 10.599C40.7739 10.8004 33.5252 13.418 33.4245 13.3173C33.2232 13.3173 32.9212 13.3173 32.7198 13.1159ZM33.5252 6.26993C33.4245 5.86722 37.2502 2.04152 37.7536 2.34355C37.955 2.44423 38.257 2.34355 38.3577 2.44423C38.7604 3.04829 41.378 9.49157 41.378 9.49157C41.2773 9.49157 40.8746 9.49158 40.8746 9.7936C40.9753 10.0956 33.8272 6.97467 33.8272 6.87399C33.8272 6.67264 33.5252 6.47128 33.5252 6.26993ZM50.2375 14.7267C50.3382 15.1295 46.5125 18.8545 46.0091 18.6531C45.8077 18.5524 45.5057 18.6531 45.405 18.5524C45.0023 17.9484 42.3847 11.5051 42.3847 11.5051C42.4854 11.5051 42.8881 11.5051 42.8881 11.1024C42.7874 10.8004 49.9355 13.9213 49.9355 14.022C49.9355 14.324 50.1368 14.5254 50.2375 14.7267ZM46.1098 2.24287C46.5125 2.1422 50.4389 5.86722 50.1368 6.37061C50.0361 6.57196 50.1368 6.77331 49.9355 6.97466C49.3314 7.37737 42.6868 9.89428 42.6868 9.89428C42.6868 9.7936 42.6868 9.3909 42.2841 9.3909C41.982 9.49158 45.2037 2.5449 45.3044 2.5449C45.7071 2.5449 45.9084 2.34355 46.1098 2.24287ZM37.4516 18.5524C37.0489 18.6531 33.1225 14.9281 33.4245 14.4247C33.5252 14.2234 33.4245 14.022 33.6259 13.8207C34.23 13.418 40.8746 10.901 40.8746 10.901C40.8746 11.0017 40.8746 11.4044 41.2773 11.4044C41.5793 11.3038 38.3577 18.2504 38.257 18.2504C37.8543 18.2504 37.653 18.4518 37.4516 18.5524Z" fill="#CED74D"/>
<path d="M18.4238 7.0753C15.9069 4.55839 11.6785 4.55839 9.16155 7.0753L0 16.0355L1.40947 17.445L10.571 8.48477C12.3832 6.6726 15.3028 6.6726 17.115 8.48477L37.2503 28.318L38.6597 26.9086L18.4238 7.0753Z" fill="#C10259"/>
<path opacity="0.8" d="M41.982 10.4983H16.7123C21.444 21.472 7.148 41.3053 23.7596 44.6276C28.8941 46.4398 28.5921 50.5675 26.8806 54.5946C25.0684 58.823 20.9407 59.5277 20.84 59.6284C20.7393 59.7291 20.6386 59.9304 20.6386 60.1318C20.6386 60.3331 20.7393 60.5345 20.9407 60.5345H37.6529C37.7536 60.5345 37.8543 60.3331 37.955 60.1318C37.955 59.9304 37.8543 59.6284 37.7536 59.6284C37.7536 59.6284 33.5252 58.823 31.713 54.5946C30.0015 50.6682 29.8002 46.4398 34.834 44.6276C51.5463 41.2046 37.2502 21.3714 41.982 10.4983ZM29.3975 43.2181C8.35611 43.2181 23.1555 22.0761 18.8265 11.3037H39.9685C35.6394 22.0761 50.4388 43.2181 29.3975 43.2181Z" fill="#A1B8C7"/>
<g opacity="0.8">
<path d="M19.3299 30.5329C18.7258 36.6742 19.8332 41.6073 29.2968 41.6073C37.1496 41.6073 39.2638 38.1843 39.3645 33.4525C33.1225 34.6606 27.4846 29.2241 19.3299 30.5329Z" fill="#F65500"/>
<path d="M39.4652 33.5532C39.5658 30.0295 38.5591 25.8011 38.0557 21.8747C32.6192 22.0761 27.5854 18.1497 20.84 18.5524C20.7394 22.3781 19.7326 26.7072 19.3299 30.5329C27.4847 29.2241 33.1226 34.6606 39.4652 33.5532Z" fill="#FCB334"/>
</g>
</svg>
